<?xml version="1.0" encoding="utf-8" ?><svg xmlns="http://www.w3.org/2000/svg" xmlns:xlink="http://www.w3.org/1999/xlink" width="1024" height="1024" viewBox="0 0 1024 1024"><path fill="white" transform="scale(2 2)" d="M106.071 233.827C106.306 215.77 104.794 193.872 106.523 176.269C112.201 118.478 169.162 81.887 221.867 71.9107C232.194 69.9559 242.528 69.137 253.006 68.5671C316.523 67.1607 398.916 105.065 405.111 176.025C405.605 181.687 405.397 187.461 405.397 193.143L405.381 219.661C405.374 224.377 405.222 229.115 405.384 233.827C430.589 242.164 429.659 260.736 429.63 281.897L429.637 314.182C429.629 340.115 415.599 349.188 391.258 349.192L374.193 349.177L374.193 233.502L384.239 233.502L384.249 199.472C384.25 192.692 384.575 185.72 383.948 178.969C378.513 120.444 312.822 91.7799 260.918 89.7612L258.81 89.7537C220.434 89.6878 180.561 100.998 152.825 128.711C129.809 151.709 127.563 170.11 127.56 199.941L127.568 233.827L137.587 233.827L137.587 348.757C107.146 348.8 82.2498 352.01 82.2158 311.705L82.2113 275.194C82.2185 259.438 82.359 247.043 98.3972 237.72C100.872 236.282 103.551 235.201 106.071 233.827Z"/><path fill="white" transform="scale(2 2)" d="M202.253 382.224L202.253 182.951L327.661 182.945C357.832 182.938 353.527 187.603 353.524 213.517L353.529 382.224L202.253 382.224ZM234.053 222.307C222.176 224.428 224.276 235.185 224.28 244.358L224.282 283.773C224.288 292.746 222.696 304.002 235.393 304.303C246.755 302.075 244.477 288.986 244.481 280.274L244.483 240.569C244.478 233.506 245.503 221.583 234.053 222.307Z"/><path fill="white" transform="scale(2 2)" d="M330.714 433.63L208.483 433.641C202.504 433.641 196.4 433.904 190.449 433.305C173.284 431.58 159.876 416.712 158.995 399.532C158.386 387.639 158.825 375.526 158.831 363.611L158.829 245.632C158.831 223.709 154.689 196.493 181.471 187.76C181.948 188.479 181.471 194.038 181.468 195.353L181.476 364.27C181.476 381.185 179.465 398.908 202.471 402.541C207.322 403.307 212.853 402.809 217.768 402.803L353.529 402.8C353.528 426.752 356.895 433.835 330.714 433.63Z"/></svg>